<?xml version="1.0" standalone="no"?>
<!DOCTYPE svg PUBLIC "-//W3C//DTD SVG 20010904//EN"
 "http://www.w3.org/TR/2001/REC-SVG-20010904/DTD/svg10.dtd">
<svg version="1.0" xmlns="http://www.w3.org/2000/svg"
 width="502.000000pt" height="497.000000pt" viewBox="0 0 502.000000 497.000000"
 preserveAspectRatio="xMidYMid meet">

<g transform="translate(0.000000,497.000000) scale(0.100000,-0.100000)"
fill="#000000" stroke="none">
<path d="M2076 4208 l-438 -440 39 -42 c121 -127 224 -275 307 -442 272 -544
272 -1164 1 -1706 -65 -129 -197 -328 -217 -328 -5 0 -303 295 -662 655 -359
360 -657 655 -661 655 -12 0 -123 -101 -130 -118 -4 -12 190 -212 727 -749
l733 -733 48 48 c216 210 423 600 507 952 54 227 68 521 36 745 -52 365 -167
653 -380 953 -36 51 -66 98 -66 105 0 7 135 147 300 312 l300 300 300 -300
c165 -165 300 -306 300 -313 0 -6 -25 -46 -55 -87 -180 -242 -305 -527 -372
-840 -26 -123 -27 -144 -27 -395 0 -295 8 -365 70 -582 36 -127 108 -312 151
-387 75 -132 133 -223 184 -291 64 -86 179 -215 191 -215 10 0 1468 1457 1468
1467 0 8 -719 728 -726 728 -2 0 -33 -30 -69 -67 l-64 -68 296 -297 297 -297
-592 -591 c-368 -368 -598 -590 -606 -587 -23 9 -171 238 -221 343 -134 278
-190 526 -189 839 0 236 29 415 104 630 75 214 231 477 377 635 l65 70 -441
440 c-242 242 -441 440 -443 439 -2 0 -200 -198 -442 -441z"/>
<path d="M4115 4621 c-52 -13 -145 -72 -145 -94 0 -5 12 3 27 18 37 37 74 54
147 70 34 8 48 13 31 13 -16 0 -43 -3 -60 -7z"/>
<path d="M4259 4599 c29 -12 72 -40 95 -62 23 -24 34 -31 25 -17 -24 37 -101
89 -140 95 -27 5 -23 1 20 -16z"/>
<path d="M3921 4424 c0 -11 3 -14 6 -6 3 7 2 16 -1 19 -3 4 -6 -2 -5 -13z"/>
<path d="M4000 4420 c0 -5 9 -10 20 -10 18 0 20 -7 20 -60 0 -47 3 -60 15 -60
12 0 15 13 15 60 0 53 2 60 20 60 11 0 20 5 20 10 0 6 -25 10 -55 10 -30 0
-55 -4 -55 -10z"/>
<path d="M4130 4361 c0 -56 3 -71 15 -71 11 0 15 11 15 42 0 45 9 44 26 -5 15
-45 32 -44 53 5 l20 43 0 -42 c1 -31 5 -43 16 -43 12 0 15 14 15 70 0 62 -2
70 -19 70 -14 0 -24 -13 -37 -45 -9 -25 -20 -45 -23 -45 -4 0 -14 19 -22 43
-11 29 -22 43 -37 45 -21 3 -22 -1 -22 -67z"/>
<path d="M4344 4188 l-29 -33 33 29 c30 28 37 36 29 36 -2 0 -16 -15 -33 -32z"/>
<path d="M3980 4196 c0 -2 8 -10 18 -17 15 -13 16 -12 3 4 -13 16 -21 21 -21
13z"/>
<path d="M4153 4113 c15 -2 37 -2 50 0 12 2 0 4 -28 4 -27 0 -38 -2 -22 -4z"/>
<path d="M2487 2523 c-4 -3 -7 -93 -7 -199 0 -190 0 -192 22 -197 12 -4 33 -4
45 -1 23 6 23 6 23 205 l0 199 -38 0 c-21 0 -42 -3 -45 -7z"/>
<path d="M2155 870 l-140 -140 250 -250 c137 -138 254 -250 259 -250 5 0 122
113 260 250 l250 250 -139 140 c-77 77 -144 140 -149 140 -5 0 -56 -47 -114
-105 l-105 -106 -35 33 c-19 18 -66 66 -105 106 -39 39 -75 72 -81 72 -6 0
-74 -63 -151 -140z m310 -95 c49 -20 145 -113 145 -139 0 -59 -61 -62 -115 -6
-37 38 -42 40 -95 39 -30 -1 -47 -3 -37 -6 24 -6 22 -15 -17 -52 l-34 -33 -17
32 c-20 39 -15 102 10 130 22 24 74 49 103 50 12 0 38 -7 57 -15z m232 -2 c39
-18 73 -65 73 -101 0 -12 -7 -39 -15 -58 -14 -34 -15 -35 -37 -20 -32 23 -55
20 -74 -9 -9 -14 -23 -25 -30 -25 -8 0 -19 -11 -23 -24 -5 -13 -19 -26 -31
-29 -12 -3 -24 -14 -26 -24 -3 -10 -14 -23 -24 -28 -10 -6 -34 -23 -54 -39
-30 -23 -39 -26 -51 -16 -24 20 -19 31 48 100 37 39 44 49 17 24 -70 -63 -100
-83 -116 -77 -27 10 -14 38 49 102 l62 65 -73 -64 c-58 -50 -77 -62 -90 -54
-9 6 -17 15 -19 21 -6 16 128 143 149 143 10 0 37 -18 60 -40 53 -50 72 -56
103 -36 39 26 33 67 -15 115 -22 22 -40 43 -40 48 0 14 61 42 93 42 16 1 45
-7 64 -16z m36 -209 c40 -38 42 -50 14 -68 -14 -9 -25 -3 -59 31 -35 36 -40
44 -29 57 19 23 32 20 74 -20z m-56 -46 c36 -34 42 -62 17 -72 -19 -7 -94 51
-94 74 0 41 34 40 77 -2z m-50 -50 c36 -34 42 -62 17 -72 -20 -8 -41 4 -78 43
-24 25 -27 33 -16 46 19 23 41 18 77 -17z m-52 -51 c40 -35 43 -61 9 -74 -23
-8 -97 67 -88 90 10 26 37 20 79 -16z m-78 -23 c20 -19 6 -49 -22 -49 -27 0
-42 30 -26 49 17 20 28 20 48 0z"/>
</g>
</svg>
